<mxfile host="Electron" agent="Mozilla/5.0 (Windows NT 10.0; Win64; x64) AppleWebKit/537.36 (KHTML, like Gecko) draw.io/24.7.5 Chrome/126.0.6478.183 Electron/31.3.0 Safari/537.36" version="24.7.5">
  <diagram name="ページ1" id="LE8fIzdrHe0wcv1LTvfw">
    <mxGraphModel dx="1909" dy="1129" grid="1" gridSize="10" guides="1" tooltips="1" connect="1" arrows="1" fold="1" page="1" pageScale="1" pageWidth="1600" pageHeight="1200" math="0" shadow="0">
      <root>
        <mxCell id="0" />
        <mxCell id="cFaB45KztUIKXS-_cTrr-4" value="背景" style="locked=1;" parent="0" visible="0" />
        <mxCell id="cFaB45KztUIKXS-_cTrr-5" value="" style="rounded=0;whiteSpace=wrap;html=1;strokeWidth=3;" parent="cFaB45KztUIKXS-_cTrr-4" vertex="1">
          <mxGeometry x="1" y="1" width="1595" height="1180" as="geometry" />
        </mxCell>
        <mxCell id="cFaB45KztUIKXS-_cTrr-6" value="" style="rounded=0;whiteSpace=wrap;html=1;fillColor=#B3B3B3;fontColor=#333333;strokeColor=#666666;" parent="cFaB45KztUIKXS-_cTrr-4" vertex="1">
          <mxGeometry width="1595" height="60" as="geometry" />
        </mxCell>
        <mxCell id="cFaB45KztUIKXS-_cTrr-7" value="&lt;font style=&quot;font-size: 48px;&quot;&gt;×&lt;/font&gt;" style="rounded=0;whiteSpace=wrap;html=1;" parent="cFaB45KztUIKXS-_cTrr-4" vertex="1">
          <mxGeometry x="1550" y="10" width="40" height="40" as="geometry" />
        </mxCell>
        <mxCell id="cFaB45KztUIKXS-_cTrr-8" value="" style="rounded=0;whiteSpace=wrap;html=1;" parent="cFaB45KztUIKXS-_cTrr-4" vertex="1">
          <mxGeometry x="830" y="670" width="120" height="60" as="geometry" />
        </mxCell>
        <mxCell id="cFaB45KztUIKXS-_cTrr-9" value="ウインドウ" style="locked=1;" parent="0" />
        <mxCell id="cFaB45KztUIKXS-_cTrr-10" value="" style="rounded=0;whiteSpace=wrap;html=1;strokeWidth=3;" parent="cFaB45KztUIKXS-_cTrr-9" vertex="1">
          <mxGeometry x="15" y="10" width="1584" height="1170" as="geometry" />
        </mxCell>
        <mxCell id="cFaB45KztUIKXS-_cTrr-11" value="" style="rounded=0;whiteSpace=wrap;html=1;fillColor=#B3B3B3;fontColor=#333333;strokeColor=#666666;" parent="cFaB45KztUIKXS-_cTrr-9" vertex="1">
          <mxGeometry x="14" y="10" width="1586" height="60" as="geometry" />
        </mxCell>
        <mxCell id="cFaB45KztUIKXS-_cTrr-12" value="&lt;font style=&quot;font-size: 48px;&quot;&gt;×&lt;/font&gt;" style="rounded=0;whiteSpace=wrap;html=1;" parent="cFaB45KztUIKXS-_cTrr-9" vertex="1">
          <mxGeometry x="1554" y="20" width="40" height="40" as="geometry" />
        </mxCell>
        <mxCell id="cFaB45KztUIKXS-_cTrr-14" value="名称未設定レイヤ" style="" parent="0" />
        <mxCell id="HvR4dSRWBfD3urc1JDpB-8" value="&lt;span style=&quot;font-size: 30px;&quot;&gt;登録申請中政治団体&lt;/span&gt;" style="text;html=1;strokeColor=none;fillColor=none;align=left;verticalAlign=middle;whiteSpace=wrap;rounded=0;fontStyle=4" parent="cFaB45KztUIKXS-_cTrr-14" vertex="1">
          <mxGeometry x="54" y="105" width="1446" height="50" as="geometry" />
        </mxCell>
        <mxCell id="HvR4dSRWBfD3urc1JDpB-15" value="&lt;span style=&quot;font-size: 30px;&quot;&gt;承認&lt;/span&gt;" style="rounded=1;whiteSpace=wrap;html=1;fillColor=#FFFFFF;" parent="cFaB45KztUIKXS-_cTrr-14" vertex="1">
          <mxGeometry x="1344" y="1080" width="210" height="60" as="geometry" />
        </mxCell>
        <mxCell id="HvR4dSRWBfD3urc1JDpB-16" value="&lt;span style=&quot;font-size: 30px;&quot;&gt;キャンセル&lt;/span&gt;" style="rounded=1;whiteSpace=wrap;html=1;" parent="cFaB45KztUIKXS-_cTrr-14" vertex="1">
          <mxGeometry x="844" y="1080" width="210" height="60" as="geometry" />
        </mxCell>
        <mxCell id="8Hxk6lD6Y1Y_H0gw2qUc-4" value="&lt;span style=&quot;font-size: 30px;&quot;&gt;政治団体名&lt;/span&gt;" style="rounded=0;whiteSpace=wrap;html=1;align=right;dashed=1;dashPattern=8 8;verticalAlign=bottom;" parent="cFaB45KztUIKXS-_cTrr-14" vertex="1">
          <mxGeometry x="74" y="660" width="310" height="46" as="geometry" />
        </mxCell>
        <mxCell id="8Hxk6lD6Y1Y_H0gw2qUc-5" value="&lt;font style=&quot;font-size: 30px;&quot;&gt;サンプル政治団体&lt;/font&gt;" style="rounded=0;whiteSpace=wrap;html=1;align=left;fillColor=#CCCCCC;" parent="cFaB45KztUIKXS-_cTrr-14" vertex="1">
          <mxGeometry x="404" y="658" width="566" height="48" as="geometry" />
        </mxCell>
        <mxCell id="g7l7Ze3qlmc8qRdJsH5r-4" value="&lt;span style=&quot;font-size: 30px;&quot;&gt;選挙管理委員会&lt;/span&gt;" style="rounded=0;whiteSpace=wrap;html=1;align=right;dashed=1;dashPattern=8 8;verticalAlign=top;" parent="cFaB45KztUIKXS-_cTrr-14" vertex="1">
          <mxGeometry x="91" y="586" width="290" height="54" as="geometry" />
        </mxCell>
        <mxCell id="g7l7Ze3qlmc8qRdJsH5r-5" value="&lt;span style=&quot;font-size: 30px;&quot;&gt;山梨県選挙管理委員会&lt;/span&gt;" style="rounded=0;whiteSpace=wrap;html=1;align=left;fillColor=#CCCCCC;" parent="cFaB45KztUIKXS-_cTrr-14" vertex="1">
          <mxGeometry x="581" y="586" width="529" height="48" as="geometry" />
        </mxCell>
        <mxCell id="g7l7Ze3qlmc8qRdJsH5r-6" value="&lt;span style=&quot;font-size: 30px;&quot;&gt;23&lt;/span&gt;" style="rounded=0;whiteSpace=wrap;html=1;align=left;fillColor=#CCCCCC;" parent="cFaB45KztUIKXS-_cTrr-14" vertex="1">
          <mxGeometry x="401" y="586" width="159" height="48" as="geometry" />
        </mxCell>
        <mxCell id="qQhVxuUYkastsXfOoopK-0" value="" style="shape=table;startSize=0;container=1;collapsible=0;childLayout=tableLayout;fontSize=16;" vertex="1" parent="cFaB45KztUIKXS-_cTrr-14">
          <mxGeometry x="100" y="180" width="1200" height="267" as="geometry" />
        </mxCell>
        <mxCell id="qQhVxuUYkastsXfOoopK-1" value="" style="shape=tableRow;horizontal=0;startSize=0;swimlaneHead=0;swimlaneBody=0;strokeColor=inherit;top=0;left=0;bottom=0;right=0;collapsible=0;dropTarget=0;fillColor=none;points=[[0,0.5],[1,0.5]];portConstraint=eastwest;fontSize=16;" vertex="1" parent="qQhVxuUYkastsXfOoopK-0">
          <mxGeometry width="1200" height="67" as="geometry" />
        </mxCell>
        <mxCell id="qQhVxuUYkastsXfOoopK-2" value="" style="shape=partialRectangle;html=1;whiteSpace=wrap;connectable=0;strokeColor=inherit;overflow=hidden;fillColor=none;top=0;left=0;bottom=0;right=0;pointerEvents=1;fontSize=16;" vertex="1" parent="qQhVxuUYkastsXfOoopK-1">
          <mxGeometry width="90" height="67" as="geometry">
            <mxRectangle width="90" height="67" as="alternateBounds" />
          </mxGeometry>
        </mxCell>
        <mxCell id="qQhVxuUYkastsXfOoopK-3" value="&lt;font style=&quot;font-size: 30px;&quot;&gt;政治団体名称&lt;/font&gt;" style="shape=partialRectangle;html=1;whiteSpace=wrap;connectable=0;strokeColor=inherit;overflow=hidden;fillColor=none;top=0;left=0;bottom=0;right=0;pointerEvents=1;fontSize=16;" vertex="1" parent="qQhVxuUYkastsXfOoopK-1">
          <mxGeometry x="90" width="460" height="67" as="geometry">
            <mxRectangle width="460" height="67" as="alternateBounds" />
          </mxGeometry>
        </mxCell>
        <mxCell id="qQhVxuUYkastsXfOoopK-4" value="&lt;span style=&quot;font-size: 30px;&quot;&gt;選管コード&lt;/span&gt;" style="shape=partialRectangle;html=1;whiteSpace=wrap;connectable=0;strokeColor=inherit;overflow=hidden;fillColor=none;top=0;left=0;bottom=0;right=0;pointerEvents=1;fontSize=16;" vertex="1" parent="qQhVxuUYkastsXfOoopK-1">
          <mxGeometry x="550" width="230" height="67" as="geometry">
            <mxRectangle width="230" height="67" as="alternateBounds" />
          </mxGeometry>
        </mxCell>
        <mxCell id="qQhVxuUYkastsXfOoopK-13" value="&lt;span style=&quot;font-size: 30px;&quot;&gt;選管名称&lt;/span&gt;" style="shape=partialRectangle;html=1;whiteSpace=wrap;connectable=0;strokeColor=inherit;overflow=hidden;fillColor=none;top=0;left=0;bottom=0;right=0;pointerEvents=1;fontSize=16;" vertex="1" parent="qQhVxuUYkastsXfOoopK-1">
          <mxGeometry x="780" width="420" height="67" as="geometry">
            <mxRectangle width="420" height="67" as="alternateBounds" />
          </mxGeometry>
        </mxCell>
        <mxCell id="qQhVxuUYkastsXfOoopK-5" value="" style="shape=tableRow;horizontal=0;startSize=0;swimlaneHead=0;swimlaneBody=0;strokeColor=inherit;top=0;left=0;bottom=0;right=0;collapsible=0;dropTarget=0;fillColor=none;points=[[0,0.5],[1,0.5]];portConstraint=eastwest;fontSize=16;align=left;" vertex="1" parent="qQhVxuUYkastsXfOoopK-0">
          <mxGeometry y="67" width="1200" height="66" as="geometry" />
        </mxCell>
        <mxCell id="qQhVxuUYkastsXfOoopK-6" value="" style="shape=partialRectangle;html=1;whiteSpace=wrap;connectable=0;strokeColor=inherit;overflow=hidden;fillColor=none;top=0;left=0;bottom=0;right=0;pointerEvents=1;fontSize=16;" vertex="1" parent="qQhVxuUYkastsXfOoopK-5">
          <mxGeometry width="90" height="66" as="geometry">
            <mxRectangle width="90" height="66" as="alternateBounds" />
          </mxGeometry>
        </mxCell>
        <mxCell id="qQhVxuUYkastsXfOoopK-7" value="&lt;span style=&quot;font-size: 30px;&quot;&gt;政治団体名称&lt;/span&gt;" style="shape=partialRectangle;html=1;whiteSpace=wrap;connectable=0;strokeColor=inherit;overflow=hidden;fillColor=none;top=0;left=0;bottom=0;right=0;pointerEvents=1;fontSize=16;align=left;" vertex="1" parent="qQhVxuUYkastsXfOoopK-5">
          <mxGeometry x="90" width="460" height="66" as="geometry">
            <mxRectangle width="460" height="66" as="alternateBounds" />
          </mxGeometry>
        </mxCell>
        <mxCell id="qQhVxuUYkastsXfOoopK-8" value="&lt;span style=&quot;font-size: 30px;&quot;&gt;22&amp;nbsp;&lt;/span&gt;" style="shape=partialRectangle;html=1;whiteSpace=wrap;connectable=0;strokeColor=inherit;overflow=hidden;fillColor=none;top=0;left=0;bottom=0;right=0;pointerEvents=1;fontSize=16;align=right;" vertex="1" parent="qQhVxuUYkastsXfOoopK-5">
          <mxGeometry x="550" width="230" height="66" as="geometry">
            <mxRectangle width="230" height="66" as="alternateBounds" />
          </mxGeometry>
        </mxCell>
        <mxCell id="qQhVxuUYkastsXfOoopK-14" value="&lt;span style=&quot;font-size: 30px;&quot;&gt;和歌山県選挙管理委員会&lt;/span&gt;" style="shape=partialRectangle;html=1;whiteSpace=wrap;connectable=0;strokeColor=inherit;overflow=hidden;fillColor=none;top=0;left=0;bottom=0;right=0;pointerEvents=1;fontSize=16;align=left;" vertex="1" parent="qQhVxuUYkastsXfOoopK-5">
          <mxGeometry x="780" width="420" height="66" as="geometry">
            <mxRectangle width="420" height="66" as="alternateBounds" />
          </mxGeometry>
        </mxCell>
        <mxCell id="qQhVxuUYkastsXfOoopK-9" value="" style="shape=tableRow;horizontal=0;startSize=0;swimlaneHead=0;swimlaneBody=0;strokeColor=inherit;top=0;left=0;bottom=0;right=0;collapsible=0;dropTarget=0;fillColor=none;points=[[0,0.5],[1,0.5]];portConstraint=eastwest;fontSize=16;" vertex="1" parent="qQhVxuUYkastsXfOoopK-0">
          <mxGeometry y="133" width="1200" height="67" as="geometry" />
        </mxCell>
        <mxCell id="qQhVxuUYkastsXfOoopK-10" value="" style="shape=partialRectangle;html=1;whiteSpace=wrap;connectable=0;strokeColor=inherit;overflow=hidden;fillColor=none;top=0;left=0;bottom=0;right=0;pointerEvents=1;fontSize=16;" vertex="1" parent="qQhVxuUYkastsXfOoopK-9">
          <mxGeometry width="90" height="67" as="geometry">
            <mxRectangle width="90" height="67" as="alternateBounds" />
          </mxGeometry>
        </mxCell>
        <mxCell id="qQhVxuUYkastsXfOoopK-11" value="&lt;span style=&quot;font-size: 30px;&quot;&gt;政治団体名称&lt;/span&gt;" style="shape=partialRectangle;html=1;whiteSpace=wrap;connectable=0;strokeColor=inherit;overflow=hidden;fillColor=none;top=0;left=0;bottom=0;right=0;pointerEvents=1;fontSize=16;align=left;" vertex="1" parent="qQhVxuUYkastsXfOoopK-9">
          <mxGeometry x="90" width="460" height="67" as="geometry">
            <mxRectangle width="460" height="67" as="alternateBounds" />
          </mxGeometry>
        </mxCell>
        <mxCell id="qQhVxuUYkastsXfOoopK-12" value="&lt;span style=&quot;font-size: 30px;&quot;&gt;34&amp;nbsp;&lt;/span&gt;" style="shape=partialRectangle;html=1;whiteSpace=wrap;connectable=0;strokeColor=inherit;overflow=hidden;fillColor=none;top=0;left=0;bottom=0;right=0;pointerEvents=1;fontSize=16;align=right;" vertex="1" parent="qQhVxuUYkastsXfOoopK-9">
          <mxGeometry x="550" width="230" height="67" as="geometry">
            <mxRectangle width="230" height="67" as="alternateBounds" />
          </mxGeometry>
        </mxCell>
        <mxCell id="qQhVxuUYkastsXfOoopK-15" value="&lt;span style=&quot;font-size: 30px;&quot;&gt;山形県選挙管理委員会&lt;/span&gt;" style="shape=partialRectangle;html=1;whiteSpace=wrap;connectable=0;strokeColor=inherit;overflow=hidden;fillColor=none;top=0;left=0;bottom=0;right=0;pointerEvents=1;fontSize=16;align=left;" vertex="1" parent="qQhVxuUYkastsXfOoopK-9">
          <mxGeometry x="780" width="420" height="67" as="geometry">
            <mxRectangle width="420" height="67" as="alternateBounds" />
          </mxGeometry>
        </mxCell>
        <mxCell id="qQhVxuUYkastsXfOoopK-16" style="shape=tableRow;horizontal=0;startSize=0;swimlaneHead=0;swimlaneBody=0;strokeColor=inherit;top=0;left=0;bottom=0;right=0;collapsible=0;dropTarget=0;fillColor=none;points=[[0,0.5],[1,0.5]];portConstraint=eastwest;fontSize=16;" vertex="1" parent="qQhVxuUYkastsXfOoopK-0">
          <mxGeometry y="200" width="1200" height="67" as="geometry" />
        </mxCell>
        <mxCell id="qQhVxuUYkastsXfOoopK-17" style="shape=partialRectangle;html=1;whiteSpace=wrap;connectable=0;strokeColor=inherit;overflow=hidden;fillColor=none;top=0;left=0;bottom=0;right=0;pointerEvents=1;fontSize=16;" vertex="1" parent="qQhVxuUYkastsXfOoopK-16">
          <mxGeometry width="90" height="67" as="geometry">
            <mxRectangle width="90" height="67" as="alternateBounds" />
          </mxGeometry>
        </mxCell>
        <mxCell id="qQhVxuUYkastsXfOoopK-18" value="&lt;span style=&quot;font-size: 30px;&quot;&gt;政治団体名称&lt;/span&gt;" style="shape=partialRectangle;html=1;whiteSpace=wrap;connectable=0;strokeColor=inherit;overflow=hidden;fillColor=none;top=0;left=0;bottom=0;right=0;pointerEvents=1;fontSize=16;align=left;" vertex="1" parent="qQhVxuUYkastsXfOoopK-16">
          <mxGeometry x="90" width="460" height="67" as="geometry">
            <mxRectangle width="460" height="67" as="alternateBounds" />
          </mxGeometry>
        </mxCell>
        <mxCell id="qQhVxuUYkastsXfOoopK-19" value="&lt;span style=&quot;font-size: 30px;&quot;&gt;45&amp;nbsp;&lt;/span&gt;" style="shape=partialRectangle;html=1;whiteSpace=wrap;connectable=0;strokeColor=inherit;overflow=hidden;fillColor=none;top=0;left=0;bottom=0;right=0;pointerEvents=1;fontSize=16;align=right;" vertex="1" parent="qQhVxuUYkastsXfOoopK-16">
          <mxGeometry x="550" width="230" height="67" as="geometry">
            <mxRectangle width="230" height="67" as="alternateBounds" />
          </mxGeometry>
        </mxCell>
        <mxCell id="qQhVxuUYkastsXfOoopK-20" value="&lt;span style=&quot;font-size: 30px;&quot;&gt;宮崎県選挙管理委員会&lt;/span&gt;" style="shape=partialRectangle;html=1;whiteSpace=wrap;connectable=0;strokeColor=inherit;overflow=hidden;fillColor=none;top=0;left=0;bottom=0;right=0;pointerEvents=1;fontSize=16;align=left;" vertex="1" parent="qQhVxuUYkastsXfOoopK-16">
          <mxGeometry x="780" width="420" height="67" as="geometry">
            <mxRectangle width="420" height="67" as="alternateBounds" />
          </mxGeometry>
        </mxCell>
        <mxCell id="qQhVxuUYkastsXfOoopK-23" style="shape=partialRectangle;html=1;whiteSpace=wrap;connectable=0;strokeColor=inherit;overflow=hidden;fillColor=none;top=0;left=0;bottom=0;right=0;pointerEvents=1;fontSize=16;" vertex="1" parent="cFaB45KztUIKXS-_cTrr-14">
          <mxGeometry x="114" y="330.5" width="50" height="40" as="geometry">
            <mxRectangle width="50" height="40" as="alternateBounds" />
          </mxGeometry>
        </mxCell>
        <mxCell id="qQhVxuUYkastsXfOoopK-25" value="&lt;font style=&quot;font-size: 84px;&quot;&gt;○&lt;/font&gt;" style="text;html=1;strokeColor=none;fillColor=none;align=center;verticalAlign=middle;whiteSpace=wrap;rounded=0;fontSize=60;" vertex="1" parent="cFaB45KztUIKXS-_cTrr-14">
          <mxGeometry x="115" y="261" width="60" height="30" as="geometry" />
        </mxCell>
        <mxCell id="qQhVxuUYkastsXfOoopK-26" value="&lt;font style=&quot;font-size: 84px;&quot;&gt;○&lt;/font&gt;" style="text;html=1;strokeColor=none;fillColor=none;align=center;verticalAlign=middle;whiteSpace=wrap;rounded=0;fontSize=60;" vertex="1" parent="cFaB45KztUIKXS-_cTrr-14">
          <mxGeometry x="114" y="390" width="60" height="30" as="geometry" />
        </mxCell>
        <mxCell id="qQhVxuUYkastsXfOoopK-27" value="&lt;font style=&quot;font-size: 84px;&quot;&gt;○&lt;/font&gt;" style="text;html=1;strokeColor=none;fillColor=none;align=center;verticalAlign=middle;whiteSpace=wrap;rounded=0;fontSize=60;" vertex="1" parent="cFaB45KztUIKXS-_cTrr-14">
          <mxGeometry x="114" y="330" width="60" height="30" as="geometry" />
        </mxCell>
        <mxCell id="qQhVxuUYkastsXfOoopK-28" value="&lt;font style=&quot;font-size: 48px;&quot;&gt;●&lt;/font&gt;" style="text;html=1;strokeColor=none;fillColor=none;align=center;verticalAlign=middle;whiteSpace=wrap;rounded=0;fontSize=48;" vertex="1" parent="cFaB45KztUIKXS-_cTrr-14">
          <mxGeometry x="114" y="332" width="60" height="30" as="geometry" />
        </mxCell>
        <mxCell id="qQhVxuUYkastsXfOoopK-30" value="&lt;span style=&quot;font-size: 30px;&quot;&gt;編集する政治団体&lt;/span&gt;" style="text;html=1;strokeColor=none;fillColor=none;align=left;verticalAlign=middle;whiteSpace=wrap;rounded=0;fontStyle=4" vertex="1" parent="cFaB45KztUIKXS-_cTrr-14">
          <mxGeometry x="54" y="515" width="1446" height="50" as="geometry" />
        </mxCell>
        <mxCell id="qQhVxuUYkastsXfOoopK-31" value="&lt;span style=&quot;font-size: 30px;&quot;&gt;登録に必要な書証&lt;/span&gt;" style="rounded=0;whiteSpace=wrap;html=1;align=right;dashed=1;dashPattern=8 8;verticalAlign=bottom;" vertex="1" parent="cFaB45KztUIKXS-_cTrr-14">
          <mxGeometry x="74" y="740" width="310" height="46" as="geometry" />
        </mxCell>
        <mxCell id="qQhVxuUYkastsXfOoopK-33" value="&lt;span style=&quot;font-size: 30px;&quot;&gt;保存された書証をダウンロード&lt;/span&gt;" style="rounded=1;whiteSpace=wrap;html=1;fillColor=#FFFFFF;" vertex="1" parent="cFaB45KztUIKXS-_cTrr-14">
          <mxGeometry x="404" y="740" width="536" height="50" as="geometry" />
        </mxCell>
        <mxCell id="qQhVxuUYkastsXfOoopK-34" value="&lt;span style=&quot;font-size: 30px;&quot;&gt;却下&lt;/span&gt;" style="rounded=1;whiteSpace=wrap;html=1;" vertex="1" parent="cFaB45KztUIKXS-_cTrr-14">
          <mxGeometry x="1094" y="1080" width="210" height="60" as="geometry" />
        </mxCell>
      </root>
    </mxGraphModel>
  </diagram>
</mxfile>
